# Tiled2Unity generated file. Do not modify by hand.
# Wavefront file for 'MainMapaSeminarska_mesh_0004.obj'

# Vertices (Count = 340)
v -1088 -32 0
v -1104 -32 0
v -1104 -16 0
v -1088 -16 0
v -1472 -80 0
v -1488 -80 0
v -1488 -64 0
v -1472 -64 0
v -560 -80 0
v -576 -80 0
v -576 -64 0
v -560 -64 0
v -896 -96 0
v -912 -96 0
v -912 -80 0
v -896 -80 0
v -1296 -112 0
v -1312 -112 0
v -1312 -96 0
v -1296 -96 0
v -1504 -128 0
v -1520 -128 0
v -1520 -112 0
v -1504 -112 0
v -1152 -160 0
v -1168 -160 0
v -1168 -144 0
v -1152 -144 0
v -1056 -160 0
v -1072 -160 0
v -1072 -144 0
v -1056 -144 0
v -512 -160 0
v -528 -160 0
v -528 -144 0
v -512 -144 0
v -448 -176 0
v -464 -176 0
v -464 -160 0
v -448 -160 0
v -1424 -192 0
v -1440 -192 0
v -1440 -176 0
v -1424 -176 0
v -1408 -192 0
v -1424 -192 0
v -1424 -176 0
v -1408 -176 0
v -992 -192 0
v -1008 -192 0
v -1008 -176 0
v -992 -176 0
v -1424 -208 0
v -1440 -208 0
v -1440 -192 0
v -1424 -192 0
v -1408 -208 0
v -1424 -208 0
v -1424 -192 0
v -1408 -192 0
v -1328 -208 0
v -1344 -208 0
v -1344 -192 0
v -1328 -192 0
v -1312 -208 0
v -1328 -208 0
v -1328 -192 0
v -1312 -192 0
v -1232 -208 0
v -1248 -208 0
v -1248 -192 0
v -1232 -192 0
v -1328 -224 0
v -1344 -224 0
v -1344 -208 0
v -1328 -208 0
v -1312 -224 0
v -1328 -224 0
v -1328 -208 0
v -1312 -208 0
v -1520 -256 0
v -1536 -256 0
v -1536 -240 0
v -1520 -240 0
v -1504 -256 0
v -1520 -256 0
v -1520 -240 0
v -1504 -240 0
v -1168 -256 0
v -1184 -256 0
v -1184 -240 0
v -1168 -240 0
v -1520 -272 0
v -1536 -272 0
v -1536 -256 0
v -1520 -256 0
v -1504 -272 0
v -1520 -272 0
v -1520 -256 0
v -1504 -256 0
v -1408 -272 0
v -1424 -272 0
v -1424 -256 0
v -1408 -256 0
v -1104 -272 0
v -1120 -272 0
v -1120 -256 0
v -1104 -256 0
v -1024 -288 0
v -1040 -288 0
v -1040 -272 0
v -1024 -272 0
v -496 -288 0
v -512 -288 0
v -512 -272 0
v -496 -272 0
v -1072 -320 0
v -1088 -320 0
v -1088 -304 0
v -1072 -304 0
v -960 -352 0
v -976 -352 0
v -976 -336 0
v -960 -336 0
v -704 -352 0
v -720 -352 0
v -720 -336 0
v -704 -336 0
v -688 -352 0
v -704 -352 0
v -704 -336 0
v -688 -336 0
v -1216 -368 0
v -1232 -368 0
v -1232 -352 0
v -1216 -352 0
v -720 -368 0
v -736 -368 0
v -736 -352 0
v -720 -352 0
v -704 -368 0
v -720 -368 0
v -720 -352 0
v -704 -352 0
v -688 -368 0
v -704 -368 0
v -704 -352 0
v -688 -352 0
v -1056 -384 0
v -1072 -384 0
v -1072 -368 0
v -1056 -368 0
v -720 -384 0
v -736 -384 0
v -736 -368 0
v -720 -368 0
v -848 -400 0
v -864 -400 0
v -864 -384 0
v -848 -384 0
v -848 -416 0
v -864 -416 0
v -864 -400 0
v -848 -400 0
v -832 -416 0
v -848 -416 0
v -848 -400 0
v -832 -400 0
v -608 -416 0
v -624 -416 0
v -624 -400 0
v -608 -400 0
v -528 -416 0
v -544 -416 0
v -544 -400 0
v -528 -400 0
v -640 -432 0
v -656 -432 0
v -656 -416 0
v -640 -416 0
v -624 -432 0
v -640 -432 0
v -640 -416 0
v -624 -416 0
v -608 -432 0
v -624 -432 0
v -624 -416 0
v -608 -416 0
v -896 -448 0
v -912 -448 0
v -912 -432 0
v -896 -432 0
v -656 -448 0
v -672 -448 0
v -672 -432 0
v -656 -432 0
v -640 -448 0
v -656 -448 0
v -656 -432 0
v -640 -432 0
v -624 -448 0
v -640 -448 0
v -640 -432 0
v -624 -432 0
v -896 -464 0
v -912 -464 0
v -912 -448 0
v -896 -448 0
v -656 -464 0
v -672 -464 0
v -672 -448 0
v -656 -448 0
v -576 -496 0
v -592 -496 0
v -592 -480 0
v -576 -480 0
v -576 -512 0
v -592 -512 0
v -592 -496 0
v -576 -496 0
v -560 -512 0
v -576 -512 0
v -576 -496 0
v -560 -496 0
v -608 -528 0
v -624 -528 0
v -624 -512 0
v -608 -512 0
v -560 -528 0
v -576 -528 0
v -576 -512 0
v -560 -512 0
v -800 -544 0
v -816 -544 0
v -816 -528 0
v -800 -528 0
v -608 -544 0
v -624 -544 0
v -624 -528 0
v -608 -528 0
v -1440 -560 0
v -1456 -560 0
v -1456 -544 0
v -1440 -544 0
v -1376 -576 0
v -1392 -576 0
v -1392 -560 0
v -1376 -560 0
v -832 -576 0
v -848 -576 0
v -848 -560 0
v -832 -560 0
v -304 -576 0
v -320 -576 0
v -320 -560 0
v -304 -560 0
v -1216 -624 0
v -1232 -624 0
v -1232 -608 0
v -1216 -608 0
v -1488 -640 0
v -1504 -640 0
v -1504 -624 0
v -1488 -624 0
v -1360 -640 0
v -1376 -640 0
v -1376 -624 0
v -1360 -624 0
v -1056 -656 0
v -1072 -656 0
v -1072 -640 0
v -1056 -640 0
v -624 -656 0
v -640 -656 0
v -640 -640 0
v -624 -640 0
v -608 -656 0
v -624 -656 0
v -624 -640 0
v -608 -640 0
v -432 -656 0
v -448 -656 0
v -448 -640 0
v -432 -640 0
v -624 -672 0
v -640 -672 0
v -640 -656 0
v -624 -656 0
v -608 -672 0
v -624 -672 0
v -624 -656 0
v -608 -656 0
v -1184 -704 0
v -1200 -704 0
v -1200 -688 0
v -1184 -688 0
v -960 -704 0
v -976 -704 0
v -976 -688 0
v -960 -688 0
v -1488 -736 0
v -1504 -736 0
v -1504 -720 0
v -1488 -720 0
v -1360 -736 0
v -1376 -736 0
v -1376 -720 0
v -1360 -720 0
v -528 -736 0
v -544 -736 0
v -544 -720 0
v -528 -720 0
v -320 -752 0
v -336 -752 0
v -336 -736 0
v -320 -736 0
v -1152 -768 0
v -1168 -768 0
v -1168 -752 0
v -1152 -752 0
v -928 -784 0
v -944 -784 0
v -944 -768 0
v -928 -768 0
v -448 -880 0
v -464 -880 0
v -464 -864 0
v -448 -864 0
v -1104 -896 0
v -1120 -896 0
v -1120 -880 0
v -1104 -880 0
v -992 -928 0
v -1008 -928 0
v -1008 -912 0
v -992 -912 0
v -688 -944 0
v -704 -944 0
v -704 -928 0
v -688 -928 0

# Texture cooridinates (Count = 28)
vt 0.2809917 0.6463878
vt 0.2975207 0.6463878
vt 0.2975207 0.6768061
vt 0.2809917 0.6768061
vt 0.8254132 0.6463878
vt 0.8419421 0.6463878
vt 0.8419421 0.6768061
vt 0.8254132 0.6768061
vt 0.8078513 0.6463878
vt 0.8243802 0.6463878
vt 0.8243802 0.6768061
vt 0.8078513 0.6768061
vt 0.8254132 0.6140684
vt 0.8419421 0.6140684
vt 0.8419421 0.6444867
vt 0.8254132 0.6444867
vt 0.8078513 0.6140684
vt 0.8243802 0.6140684
vt 0.8243802 0.6444867
vt 0.8078513 0.6444867
vt 0.2458678 0.7110266
vt 0.2623967 0.7110266
vt 0.2623967 0.7414448
vt 0.2458678 0.7414448
vt 0.2809917 0.6140684
vt 0.2975207 0.6140684
vt 0.2975207 0.6444867
vt 0.2809917 0.6444867

# Normal
vn 0 0 -1

# Mesh description
g MainMapaSeminarska_mesh_0004

# Faces
f 1/1/1 2/2/1 3/3/1 4/4/1
f 5/1/1 6/2/1 7/3/1 8/4/1
f 9/1/1 10/2/1 11/3/1 12/4/1
f 13/1/1 14/2/1 15/3/1 16/4/1
f 17/1/1 18/2/1 19/3/1 20/4/1
f 21/1/1 22/2/1 23/3/1 24/4/1
f 25/1/1 26/2/1 27/3/1 28/4/1
f 29/1/1 30/2/1 31/3/1 32/4/1
f 33/1/1 34/2/1 35/3/1 36/4/1
f 37/1/1 38/2/1 39/3/1 40/4/1
f 41/5/1 42/6/1 43/7/1 44/8/1
f 45/9/1 46/10/1 47/11/1 48/12/1
f 49/1/1 50/2/1 51/3/1 52/4/1
f 53/13/1 54/14/1 55/15/1 56/16/1
f 57/17/1 58/18/1 59/19/1 60/20/1
f 61/5/1 62/6/1 63/7/1 64/8/1
f 65/9/1 66/10/1 67/11/1 68/12/1
f 69/1/1 70/2/1 71/3/1 72/4/1
f 73/13/1 74/14/1 75/15/1 76/16/1
f 77/17/1 78/18/1 79/19/1 80/20/1
f 81/5/1 82/6/1 83/7/1 84/8/1
f 85/9/1 86/10/1 87/11/1 88/12/1
f 89/1/1 90/2/1 91/3/1 92/4/1
f 93/13/1 94/14/1 95/15/1 96/16/1
f 97/17/1 98/18/1 99/19/1 100/20/1
f 101/21/1 102/22/1 103/23/1 104/24/1
f 105/1/1 106/2/1 107/3/1 108/4/1
f 109/1/1 110/2/1 111/3/1 112/4/1
f 113/1/1 114/2/1 115/3/1 116/4/1
f 117/1/1 118/2/1 119/3/1 120/4/1
f 121/1/1 122/2/1 123/3/1 124/4/1
f 125/1/1 126/2/1 127/3/1 128/4/1
f 129/1/1 130/2/1 131/3/1 132/4/1
f 133/1/1 134/2/1 135/3/1 136/4/1
f 137/1/1 138/2/1 139/3/1 140/4/1
f 141/25/1 142/26/1 143/27/1 144/28/1
f 145/25/1 146/26/1 147/27/1 148/28/1
f 149/1/1 150/2/1 151/3/1 152/4/1
f 153/25/1 154/26/1 155/27/1 156/28/1
f 157/1/1 158/2/1 159/3/1 160/4/1
f 161/25/1 162/26/1 163/27/1 164/28/1
f 165/25/1 166/26/1 167/27/1 168/28/1
f 169/1/1 170/2/1 171/3/1 172/4/1
f 173/1/1 174/2/1 175/3/1 176/4/1
f 177/1/1 178/2/1 179/3/1 180/4/1
f 181/1/1 182/2/1 183/3/1 184/4/1
f 185/25/1 186/26/1 187/27/1 188/28/1
f 189/1/1 190/2/1 191/3/1 192/4/1
f 193/1/1 194/2/1 195/3/1 196/4/1
f 197/25/1 198/26/1 199/27/1 200/28/1
f 201/25/1 202/26/1 203/27/1 204/28/1
f 205/25/1 206/26/1 207/27/1 208/28/1
f 209/25/1 210/26/1 211/27/1 212/28/1
f 213/1/1 214/2/1 215/3/1 216/4/1
f 217/25/1 218/26/1 219/27/1 220/28/1
f 221/1/1 222/2/1 223/3/1 224/4/1
f 225/1/1 226/2/1 227/3/1 228/4/1
f 229/25/1 230/26/1 231/27/1 232/28/1
f 233/1/1 234/2/1 235/3/1 236/4/1
f 237/25/1 238/26/1 239/27/1 240/28/1
f 241/1/1 242/2/1 243/3/1 244/4/1
f 245/1/1 246/2/1 247/3/1 248/4/1
f 249/1/1 250/2/1 251/3/1 252/4/1
f 253/1/1 254/2/1 255/3/1 256/4/1
f 257/1/1 258/2/1 259/3/1 260/4/1
f 261/1/1 262/2/1 263/3/1 264/4/1
f 265/1/1 266/2/1 267/3/1 268/4/1
f 269/1/1 270/2/1 271/3/1 272/4/1
f 273/1/1 274/2/1 275/3/1 276/4/1
f 277/1/1 278/2/1 279/3/1 280/4/1
f 281/1/1 282/2/1 283/3/1 284/4/1
f 285/25/1 286/26/1 287/27/1 288/28/1
f 289/25/1 290/26/1 291/27/1 292/28/1
f 293/1/1 294/2/1 295/3/1 296/4/1
f 297/1/1 298/2/1 299/3/1 300/4/1
f 301/1/1 302/2/1 303/3/1 304/4/1
f 305/1/1 306/2/1 307/3/1 308/4/1
f 309/1/1 310/2/1 311/3/1 312/4/1
f 313/1/1 314/2/1 315/3/1 316/4/1
f 317/1/1 318/2/1 319/3/1 320/4/1
f 321/1/1 322/2/1 323/3/1 324/4/1
f 325/1/1 326/2/1 327/3/1 328/4/1
f 329/1/1 330/2/1 331/3/1 332/4/1
f 333/1/1 334/2/1 335/3/1 336/4/1
f 337/1/1 338/2/1 339/3/1 340/4/1

